<?xml version="1.0" encoding="utf-8"?>
<!-- Generator: Adobe Illustrator 16.2.1, SVG Export Plug-In . SVG Version: 6.00 Build 0)  -->
<!DOCTYPE svg PUBLIC "-//W3C//DTD SVG 1.1//EN" "http://www.w3.org/Graphics/SVG/1.1/DTD/svg11.dtd">
<svg version="1.1" id="Art" xmlns="http://www.w3.org/2000/svg" xmlns:xlink="http://www.w3.org/1999/xlink" x="0px" y="0px"
	 width="1958px" height="576px" viewBox="772.7 633.83 1958 576" enable-background="new 772.7 633.83 1958 576"
	 xml:space="preserve">
<g>
	<g>
		<path fill="#FFFFFF" d="M2709.438,802.781c11.562,0,21.262,9.066,21.262,20.979c0,12.13-9.697,21.212-21.262,21.212
			c-11.565,0-21.264-9.082-21.264-20.979C2688.175,811.849,2697.874,802.781,2709.438,802.781z M2709.438,841.902
			c9.928,0,17.863-7.816,17.863-18.143c0-10.154-7.938-17.926-17.863-17.926s-17.865,7.771-17.865,18.156
			C2691.573,834.086,2699.511,841.902,2709.438,841.902z M2701.554,811.793h8.963c5.84,0,8.619,2.154,8.619,7.029
			c0,4.367-2.836,6.24-6.469,6.639l7.033,10.779h-3.688l-6.689-10.5h-4.363v10.5h-3.404L2701.554,811.793L2701.554,811.793z
			 M2704.96,822.674h4.195c3.398,0,6.578-0.172,6.578-4.02c0-3.412-2.896-3.811-5.502-3.811h-5.271V822.674z"/>
	</g>
	<g>
		<path fill="#FFFFFF" d="M1619.466,835.863v113.088c0,51.641,22.992,65.219,52.021,65.219c32.417,0,54.661-20.734,54.661-66.35
			V835.863h39.202v208.842h-35.812v-22.621h-0.749c-10.557,18.092-35.062,27.898-61.451,27.898c-23.743,0-44.48-7.535-59.559-20.73
			c-17.342-15.084-27.521-38.461-27.521-80.303V835.863H1619.466z"/>
		<path fill="#FFFFFF" d="M1980.972,905.224c-6.404-13.193-21.488-39.205-58.812-39.205c-50.514,0-68.602,42.221-68.602,73.892
			c0,36.197,22.994,74.262,67.854,74.262c29.396,0,49.379-16.957,59.182-38.447h43.729c-15.832,46.361-56.547,74.262-102.908,74.262
			c-68.609,0-107.064-56.172-107.064-110.074c0-56.55,41.477-109.695,107.436-109.695c59.189,0,94.629,44.098,102.539,75.01h-43.351
			L1980.972,905.224L1980.972,905.224z"/>
		<path fill="#FFFFFF" d="M2426.2,947.822c0,45.613-22.238,66.348-54.664,66.348c-29.021,0-52.016-13.578-52.016-65.219V835.863
			h-39.205v113.088c0,41.842,10.186,65.219,27.52,80.303c15.09,13.193,35.812,20.73,59.564,20.73
			c26.385,0,50.887-9.811,61.438-27.898h0.762v22.621h35.812V835.863H2426.2V947.822L2426.2,947.822z"/>
		<g>
			<g>
				<polygon fill="#FFFFFF" points="2174.534,934.246 2250.298,835.863 2201.646,835.838 2130.288,937.227 2213.366,1044.705 
					2262.366,1044.705 				"/>
			</g>
		</g>
		<rect x="2069.222" y="765.84" fill="#FFFFFF" width="39.203" height="278.854"/>
		<path fill="#FFFFFF" d="M1381.771,857.265h48.462c45.986,0,61.82,22.223,61.82,40.354c0,41.814-60.314,42.398-76.9,42.398h-21.4
			l74.438,83.779l19.881,20.766h59.189l-81.016-80.559c18.097,0,66.52-9.076,66.52-66.387c0-18.131-7.913-38.014-25.637-51.166
			c-14.695-10.826-35.057-18.127-74.26-18.127h-91.811v216.381h40.712L1381.771,857.265L1381.771,857.265z"/>
		<path fill="#FFFFFF" d="M2631.974,890.113c-3.293-17.18-15.83-25.377-32.736-25.377c-17.842,0-30.408,9.555-30.408,23.518
			c0,18.379,18.912,23.101,39.391,28.373c19.135,4.9,73.377,17.979,73.377,66.861c0,35.787-29.885,65.295-81.461,65.295
			c-31.154,0-85.533-17.053-85.955-71.342l43.818-0.061c1.789,23.371,17.271,38.064,43.094,38.064
			c22.135,0,36.895-11.977,36.895-29.686c0-19.309-19.855-26.355-43.896-33.516c-26.707-8.305-68.951-18.201-68.951-61.615
			c0-30.487,30.641-59.215,76.455-59.215c32.885,0,74.196,19.793,74.196,58.633L2631.974,890.113z"/>
	</g>
	<g>
		<path fill="#FFFFFF" d="M1523.878,1158.275c3.377,5.689,8.885,8.588,15.643,8.588c8.59,0,15.341-5.221,15.341-13.422
			c0-19.115-35.226-7.916-35.226-33.873c0-12.166,10.424-18.727,21.908-18.727c7.432,0,13.994,2.508,18.626,8.588l-5.499,3.955
			c-3.188-4.443-7.434-6.752-13.316-6.752c-8.207,0-15.35,4.238-15.35,12.936c0,20.549,35.229,8.197,35.229,33.873
			c0,12.35-10.133,19.213-21.232,19.213c-8.974,0-16.891-2.898-22.195-10.34L1523.878,1158.275z"/>
		<path fill="#FFFFFF" d="M1581.803,1104.311c2.413,0,4.341,1.939,4.341,4.352c0,2.404-1.928,4.342-4.341,4.342
			c-2.415,0-4.348-1.938-4.348-4.342C1577.457,1106.248,1579.388,1104.311,1581.803,1104.311z M1578.907,1126.318h5.791v44.59
			h-5.791V1126.318z"/>
		<path fill="#FFFFFF" d="M1604.975,1138.861c0-3.275-0.485-10.223-0.485-12.543h5.79c0.097,3.281,0.192,6.957,0.386,7.809h0.286
			c2.319-4.912,8.019-8.969,15.252-8.969c5.889,0,11.294,2.896,13.42,9.656c2.794-6.664,8.978-9.656,15.147-9.656
			c13.896,0,16.988,9.465,16.988,19.211v26.539h-5.789v-26.256c0-7.227-2.029-14.275-11.199-14.275
			c-10.709,0-13.512,9.074-13.512,15.441v25.09h-5.787v-26.832c0-8.197-2.994-13.699-9.271-13.699
			c-8.592,0-15.438,5.98-15.438,18.24v22.291h-5.79L1604.975,1138.861L1604.975,1138.861z"/>
		<path fill="#FFFFFF" d="M1689.821,1126.318h5.791v7.809h0.195c3.568-6.176,11.197-8.969,17.848-8.969
			c13.711,0,23.459,9.85,23.459,23.459s-9.748,23.445-23.459,23.445c-6.65,0-14.277-2.795-17.848-8.979h-0.195v29.828h-5.791
			V1126.318z M1713.655,1166.863c10.911,0,17.668-8.201,17.668-18.246c0-10.037-6.757-18.24-17.668-18.24
			c-10.514,0-18.615,8.203-18.615,18.24C1695.04,1158.662,1703.142,1166.863,1713.655,1166.863z"/>
		<path fill="#FFFFFF" d="M1754.886,1097.949h5.789v72.959h-5.789V1097.949z"/>
		<path fill="#FFFFFF" d="M1793.496,1184.721c-2.215,5.688-5.888,9.355-12.259,9.355c-1.928,0-3.858-0.389-5.691-0.871l0.576-5.408
			c1.645,0.484,3.479,1.068,5.213,1.068c4.25,0,6.082-3.961,7.438-7.436l4.053-10.33l-18.146-44.781h6.467l14.77,37.551
			l14.373-37.551h6.184L1793.496,1184.721z"/>
		<path fill="#FFFFFF" d="M1860.104,1102.572h19.691c10.422,0,22.016,2.605,22.016,18.049c0,6.945-4.158,12.551-12.266,14.193v0.193
			c8.971,0.68,15.25,7.234,15.25,16.791c0,15.729-13.613,19.109-22.875,19.109h-21.816V1102.572z M1866.476,1132.107h13.229
			c13.225,0,15.734-7.234,15.734-11.486c0-9.557-6.76-12.258-14.873-12.258h-14.09V1132.107z M1866.476,1165.119h14.576
			c14.965,0,17.377-8.301,17.377-13.127c0-10.135-8.307-14.092-16.412-14.092h-15.541V1165.119z"/>
		<path fill="#FFFFFF" d="M1962.524,1162.521c-4.543,6.746-11.393,9.541-19.305,9.541c-13.609,0-22.592-9.748-22.592-23.545
			c0-13.318,9.27-23.359,22.305-23.359c13.703,0,20.939,10.529,20.939,20.854v4.045h-37.453c0,4.832,3.382,16.811,16.896,16.811
			c5.887,0,12.065-3.102,14.953-7.922L1962.524,1162.521z M1958.079,1144.854c0-7.918-6.84-14.477-15.436-14.477
			c-12.646,0-16.225,12.16-16.225,14.477H1958.079z"/>
		<path fill="#FFFFFF" d="M2002.493,1131.531h-12.738v29.051c0,3.953,2.318,6.281,6.178,6.281c2.223,0,4.535-0.688,6.562-1.559
			l0.484,5.219c-2.121,0.771-5.312,1.539-7.523,1.539c-8.311,0-11.494-5.117-11.494-11.48v-29.051h-9.646v-5.213h9.646v-12.836
			h5.796v12.836h12.737L2002.493,1131.531L2002.493,1131.531z"/>
		<path fill="#FFFFFF" d="M2038.503,1131.531h-12.744v29.051c0,3.953,2.318,6.281,6.18,6.281c2.219,0,4.531-0.688,6.564-1.559
			l0.482,5.219c-2.129,0.771-5.309,1.539-7.531,1.539c-8.297,0-11.484-5.117-11.484-11.48v-29.051h-9.652v-5.213h9.652v-12.836
			h5.791v12.836h12.742V1131.531L2038.503,1131.531z"/>
		<path fill="#FFFFFF" d="M2092.075,1162.521c-4.535,6.746-11.391,9.541-19.303,9.541c-13.611,0-22.588-9.748-22.588-23.545
			c0-13.318,9.27-23.359,22.303-23.359c13.697,0,20.941,10.529,20.941,20.854v4.045h-37.451c0,4.832,3.381,16.811,16.893,16.811
			c5.885,0,12.064-3.102,14.959-7.922L2092.075,1162.521z M2087.636,1144.854c0-7.918-6.855-14.477-15.439-14.477
			c-12.65,0-16.219,12.16-16.219,14.477H2087.636z"/>
		<path fill="#FFFFFF" d="M2110.226,1138.861c0-3.275-0.48-10.223-0.48-12.543h5.793c0.1,3.281,0.193,6.957,0.385,7.809
			c2.896-5.201,7.527-8.969,14.188-8.969c1.16,0,2.225,0.203,3.385,0.484l-0.68,5.689c-0.865-0.281-1.645-0.385-2.229-0.385
			c-10.036,0-14.566,6.953-14.566,15.645v24.316h-5.795L2110.226,1138.861L2110.226,1138.861z"/>
		<path fill="#FFFFFF" d="M2167.96,1102.572h6.566l16.984,60.512h0.188l17.281-60.512h8.102l17.283,60.512h0.188l16.988-60.512
			h6.562l-19.877,68.336h-7.824l-17.27-60.805h-0.193l-17.281,60.805h-7.812L2167.96,1102.572z"/>
		<path fill="#FFFFFF" d="M2276.36,1104.311c2.412,0,4.338,1.939,4.338,4.352c0,2.404-1.926,4.342-4.338,4.342
			c-2.414,0-4.338-1.938-4.338-4.342C2272.022,1106.248,2273.946,1104.311,2276.36,1104.311z M2273.466,1126.318h5.787v44.59h-5.787
			V1126.318z"/>
		<path fill="#FFFFFF" d="M2299.532,1138.861c0-3.275-0.49-10.223-0.49-12.543h5.797c0.1,3.281,0.195,6.957,0.387,7.809
			c2.896-5.201,7.531-8.969,14.188-8.969c1.158,0,2.229,0.203,3.385,0.484l-0.68,5.689c-0.869-0.281-1.643-0.385-2.225-0.385
			c-10.037,0-14.57,6.953-14.57,15.645v24.316h-5.789L2299.532,1138.861L2299.532,1138.861z"/>
		<path fill="#FFFFFF" d="M2373.181,1162.521c-4.537,6.746-11.391,9.541-19.307,9.541c-13.609,0-22.582-9.748-22.582-23.545
			c0-13.318,9.266-23.359,22.293-23.359c13.701,0,20.939,10.529,20.939,20.854v4.045h-37.443c0,4.832,3.375,16.811,16.891,16.811
			c5.893,0,12.066-3.102,14.959-7.922L2373.181,1162.521z M2368.737,1144.854c0-7.918-6.854-14.477-15.443-14.477
			c-12.643,0-16.211,12.16-16.211,14.477H2368.737z"/>
		<path fill="#FFFFFF" d="M2392.302,1097.949h5.789v72.959h-5.789V1097.949z"/>
		<path fill="#FFFFFF" d="M2457.739,1162.521c-4.535,6.746-11.389,9.541-19.301,9.541c-13.609,0-22.584-9.748-22.584-23.545
			c0-13.318,9.268-23.359,22.285-23.359c13.719,0,20.955,10.529,20.955,20.854v4.045h-37.451c0,4.832,3.383,16.811,16.891,16.811
			c5.887,0,12.062-3.102,14.959-7.922L2457.739,1162.521z M2453.304,1144.854c0-7.918-6.854-14.477-15.443-14.477
			c-12.643,0-16.217,12.16-16.217,14.477H2453.304z"/>
		<path fill="#FFFFFF" d="M2475.997,1159.514c2.412,4.74,7.721,7.352,12.932,7.352c5.016,0,10.232-3.1,10.232-8.201
			c0-12.268-26.447-3.686-26.447-20.666c0-8.678,7.912-12.838,15.256-12.838c7.234,0,12.834,2.709,15.729,8.396l-5.211,3.094
			c-2.223-4.062-5.312-6.271-10.52-6.271c-4.156,0-9.467,2.514-9.467,7.139c0,12.059,26.453,2.707,26.453,20.762
			c0,9.154-7.627,13.785-16.123,13.785c-7.627,0-14.475-2.891-17.951-9.062L2475.997,1159.514z"/>
		<path fill="#FFFFFF" d="M2520.979,1159.514c2.414,4.74,7.723,7.352,12.934,7.352c5.021,0,10.23-3.1,10.23-8.201
			c0-12.268-26.441-3.686-26.441-20.666c0-8.678,7.912-12.838,15.246-12.838c7.24,0,12.838,2.709,15.734,8.396l-5.213,3.094
			c-2.217-4.062-5.309-6.271-10.521-6.271c-4.148,0-9.455,2.514-9.455,7.139c0,12.059,26.445,2.707,26.445,20.762
			c0,9.154-7.623,13.785-16.121,13.785c-7.623,0-14.479-2.891-17.951-9.062L2520.979,1159.514z"/>
		<path fill="#FFFFFF" d="M2570.698,1162.227c2.604,0,4.629,2.027,4.629,4.639c0,2.604-2.023,4.629-4.629,4.629
			c-2.609,0-4.635-2.025-4.635-4.629C2566.063,1164.254,2568.089,1162.227,2570.698,1162.227z"/>
	</g>
	<g>
		<path fill="#FFFFFF" d="M1077.431,881.449c0,0-2.834-16.547,4.502-23.613c7.318-7.092,19.418,0.562,19.418,0.562l35.039,20.316
			c0,0,28.328,16.531,35.062,17.479c6.402,0.891,13.168-1.881,15.945-8.555c2.174-5.229-2.057-10.984-3.205-12.848
			c-2.002-3.205-8.068-10.349-8.068-10.349l-31.334-32.245c0,0-16.312-15.072-16.916-24.007
			c-0.416-6.168,21.742-19.526,21.742-19.526s22.152-11.381,44.24-23.988c22.104-12.625,8.318-29.482,1.545-30.727
			c-6.771-1.214-35.633,4.934-35.633,4.934s-29.848,6.156-52.861,7.389c-23.012,1.229-30.785-15.396-30.785-15.396
			s-11.008-19.076-15.637-28.311c-4.615-9.232-6.958-10.984-14.364-7.283c-5.892,2.941,3.904,24.021,3.904,24.021
			s5.845,13.125,8.61,18.957c2.773,5.857,3.709,10.711-1.832,13.477c-5.541,2.773-9.559-7.619-9.559-7.619l-15.988-29.236
			c0,0-5.098-8.045-7.007-10.453c-8.931-11.331-30.387,13.195-30.451,17.332c-0.23,13.33,16.769-0.204,21.215,9.115
			c2.496,5.226,8.235,17.793,9.776,21.176c1.538,3.398,11.142,27.699-6.079,34.771c-17.24,7.076-87.929,38.746-179.943,38.746
			c-31.825,0-47.444-3.766-47.444-3.766s-31.217-9.018-12.821,17.355c0,0,13.044,15.887,17.066,28.75
			c6.521,20.854,2.557,52.59-1.712,63.682c-4.266,11.086-16.743,24.463-16.743,24.463s6.927,158.877,3.945,177.352
			c-3.149,19.527,2.299,35.289,2.299,35.289s1.447,14.074,18.176,24.678c13.064,8.283,13.639-2.27,13.639-9.104
			c0-6.807-7.68-17.045-12.791-22.174c-5.109-5.105-3.413-14.902-3.413-14.902l15.258-174.486c0,0,4.19-17.512,15.155-3.879
			c8.914,11.055-2.268,23.023-2.268,23.023s6.882,127.336,6.882,144.58c0,20.186-2.094,31.645-0.406,38.457
			c1.706,6.838,11.643,16.215,23.589,20.188c11.951,3.984,10.245-5.684,10.245-5.684s-1.908-15.68-11.089-19.609
			c-5.979-2.559-5.125-31.279-5.125-31.279l3.262-101.271c0,0-2.428-79.438,34.064-89.443c30.235-8.291,91.505,5.146,91.505,5.146
			s43.376,6.594,52.422,40.945c9.965,37.898,23.213,154.355,23.213,154.355s11.879,58.969,48.768,47.986
			c1.264-0.365,2.484-0.895,2.484-0.895s9.803-3.975-6.266-14.668c-16.051-10.734-20.436-10.23-27.732-46.277
			c-7.303-36.016-10.75-139.893-11.25-148.168c-0.479-8.27-1.943-23.35-1.943-23.35s2.166-9.586,7.799-2.438
			c6.402,8.133,14.396,48.082,14.396,48.082s14.676,87.346,17.102,99.238c1.604,7.895,5.643,42.111,27.129,58.553
			c16.545,12.674,40.539,3.76,40.539,3.76s6.818-13.633-12.182-15.57c-16.715-1.715-26.283-8.307-32.602-27.283
			C1115.581,1108.229,1077.431,881.449,1077.431,881.449z"/>
		<g>
			<path fill="#EE9601" d="M1202.868,1155.582c21.773-9.83,40.66-12.15,65.42-5.865c26.541,6.736,37.498,22.154,28.521,36.982
				c4.672-11.162-9.607-23.9-36.352-30.684C1236.237,1149.861,1220.903,1149.58,1202.868,1155.582z"/>
			<path fill="#EE9601" stroke="#EE9601" stroke-width="0.1395" stroke-miterlimit="3.8637" d="M1165.968,1136.389
				c-3.564-6.682-29.018-55.98-27.504-97.225c0.262-6.986,1.146-13.869,2.297-20.822c6.152-37.021,3.002-43.473-33-110.649
				l6.02-10.827c36.004,67.178,39.172,73.631,33.021,110.65c-1.178,6.953-2.055,13.834-2.326,20.844
				c-1.527,41.803,24.662,91.9,27.654,97.48c22.299,41.424,61.758,72.797,94.389,72.797c14.059,0,24.799-5.834,31.656-15.76
				c-5.578,16.619-18.432,26.953-37.146,26.953c-32.848,0-72.893-31.479-95.086-73.4L1165.968,1136.389z"/>
			<path fill="#EE9601" d="M1103.39,890.254c0,0-83.955-63.006-94.48-98.178c-1.859-6.143-27.624,7.354-27.624,7.354
				s62.386,65.368,108.604,93.274C1100.595,899.164,1103.39,890.254,1103.39,890.254z"/>
			<path fill="#FFFFFF" d="M1101.858,911.668c-8.254,0-14.969-6.715-14.969-14.971c0-8.257,6.715-14.975,14.969-14.975
				c8.25,0,14.961,6.718,14.961,14.975C1116.819,904.953,1110.108,911.668,1101.858,911.668z M1101.858,887.723
				c-4.945,0-8.969,4.025-8.969,8.975c0,4.947,4.023,8.971,8.969,8.971c4.941,0,8.961-4.023,8.961-8.971
				C1110.819,891.748,1106.8,887.723,1101.858,887.723z"/>
		</g>
		<g>
			<path fill="#EE9601" d="M1277.597,633.83l15.398,6.383l-8.047,18.154l-44.465,77.016l0,0l29.068-83.405L1277.597,633.83z"/>
			<path fill="#EE9601" d="M1325.255,662.363l12.521,10.957l-13.453,14.623l-66.756,58.752l0,0l54.23-69.725L1325.255,662.363z"/>
			<path fill="#EE9601" d="M1363.866,704.863l8.283,14.449l-17.447,9.473l-82.238,33.893l0,0l73.932-48.354L1363.866,704.863z"/>
		</g>
	</g>
</g>
</svg>
